<svg height="411pt" viewBox="-39 0 411 411.21952" width="411pt" xmlns="http://www.w3.org/2000/svg"><path d="m326.753906 160.378906c1.386719 22.058594-1.859375 44.164063-9.53125 64.890625-7.902344 21.671875-20.78125 41.179688-36.570312 58l-113.558594 120.949219-113.5625-120.949219c-15.789062-16.820312-28.667969-36.328125-36.570312-58-7.671876-20.726562-10.917969-42.832031-9.527344-64.890625 5.429687-81.339844 70.386718-153.378906 159.660156-153.378906 89.269531 0 154.226562 72.039062 159.660156 153.378906zm-50.742187-.75c.660156-61.769531-47.570313-112.367187-107.71875-113.007812-60.152344-.640625-109.449219 48.898437-110.121094 110.667968-.535156 35.335938 15.546875 68.871094 43.429687 90.582032 38.523438 29.933594 92.441407 29.910156 130.941407-.050782 27.222656-21.195312 43.238281-53.691406 43.46875-88.191406zm0 0" fill="#e48e66"/><path d="m168.292969 46.621094c60.148437.640625 108.378906 51.238281 107.71875 113.007812-.230469 34.5-16.246094 66.996094-43.46875 88.191406l-.449219-.589843c0-35.898438-29.101562-65-65-65s-65 29.101562-65 65l-.492188.640625c-27.882812-21.710938-43.964843-55.246094-43.429687-90.582032.671875-61.769531 49.96875-111.320312 110.121094-110.667968zm37.800781 66.058594c0-21.539063-17.460938-39-39-39s-39 17.460937-39 39c0 21.539062 17.460938 39 39 39s39-17.460938 39-39zm0 0" fill="#f8ec7d"/><path d="m232.09375 247.230469.449219.589843c-38.5 29.960938-92.417969 29.984376-130.941407.050782l.492188-.640625c0-35.898438 29.101562-65 65-65s65 29.101562 65 65zm0 0" fill="#6fe3ff"/><path d="m206.09375 112.679688c0 21.539062-17.460938 39-39 39s-39-17.460938-39-39c0-21.539063 17.460938-39 39-39s39 17.460937 39 39zm0 0" fill="#6fe3ff"/><g fill="#63316d"><path d="m48.429688 288.0625 113.5625 120.949219c1.324218 1.40625 3.171874 2.207031 5.105468 2.207031s3.78125-.800781 5.101563-2.207031l113.558593-120.953125c17.386719-18.519532 30.1875-38.839844 38.042969-60.390625 8.03125-21.636719 11.417969-44.722657 9.941407-67.753907-2.765626-42.09375-20.675782-81.757812-50.421876-111.667968-30.792968-30.886719-72.613281-48.246094-116.226562-48.246094-43.617188 0-85.4375 17.359375-116.230469 48.246094-29.742187 29.910156-47.652343 69.574218-50.417969 111.664062-1.476562 23.03125 1.910157 46.117188 9.941407 67.757813 7.855469 21.550781 20.65625 41.871093 38.042969 60.394531zm-34.011719-127.21875c2.539062-38.714844 19.007812-75.199219 46.363281-102.714844 28.164062-28.25 66.417969-44.128906 106.3125-44.128906 39.890625 0 78.144531 15.878906 106.308594 44.128906 27.359375 27.515625 43.828125 64.003906 46.367187 102.71875 1.34375 21.085938-1.765625 42.21875-9.125 62.027344-7.199219 19.761719-19.011719 38.46875-35.097656 55.605469l-108.453125 115.511719-108.457031-115.511719c-16.085938-17.136719-27.894531-35.84375-35.101563-55.609375-7.355468-19.804688-10.464844-40.941406-9.117187-62.027344zm0 0"/><path d="m97.316406 253.410156c19.589844 15.269532 43.664063 23.667969 68.5 23.894532.421875 0 .84375.007812 1.265625.007812 25.273438.039062 49.828125-8.390625 69.742188-23.953125 28.953125-22.386719 45.789062-56.519531 46.1875-93.648437.480469-31.351563-11.363281-61.632813-32.988281-84.335938-21.21875-22.53125-50.707032-35.445312-81.65625-35.753906-.417969 0-.820313-.007813-1.238282-.007813-63.34375 0-115.25 52.5-115.957031 117.601563-.40625 37.578125 16.84375 73.539062 46.144531 96.195312zm68.652344 9.894532c-20.394531-.183594-40.238281-6.660157-56.816406-18.539063 1.320312-31.027344 26.847656-55.507813 57.902344-55.53125 31.054687-.019531 56.613281 24.425781 57.972656 55.453125-17.1875 12.363281-37.886719 18.886719-59.058594 18.613281zm1.164062-209.695313c.355469 0 .726563 0 1.085938.007813 27.171875.28125 53.054688 11.625 71.671875 31.414062 39.625 42.035156 38.714844 107.9375-2.054687 148.867188-6.40625-34.03125-36.136719-58.679688-70.765626-58.667969-34.628906.011719-64.339843 24.679687-70.726562 58.714843-20.253906-20.304687-31.484375-47.902343-31.167969-76.578124.617188-57.445313 46.25-103.757813 101.957031-103.757813zm0 0"/><path d="m167.09375 158.679688c25.402344 0 46-20.59375 46-46s-20.597656-46-46-46c-25.40625 0-46 20.59375-46 46 .027344 25.394531 20.605469 45.972656 46 46zm0-78c17.671875 0 32 14.328124 32 32 0 17.671874-14.328125 32-32 32-17.675781 0-32-14.328126-32-32 .019531-17.664063 14.332031-31.980469 32-32zm0 0"/></g></svg>